<mxfile host="app.diagrams.net" modified="2023-10-02T09:02:09.224Z" agent="Mozilla/5.0 (iPad; CPU OS 16_6 like Mac OS X) AppleWebKit/605.1.15 (KHTML, like Gecko) CriOS/117.0.5938.117 Mobile/15E148 Safari/604.1" etag="SsTPGCalyb0m4VSS0i_5" version="22.0.0" type="github">
  <diagram name="Seite-1" id="ZKP9oDKvs8pTY8Me5NrC">
    <mxGraphModel dx="694" dy="578" grid="0" gridSize="10" guides="1" tooltips="1" connect="1" arrows="1" fold="1" page="0" pageScale="1" pageWidth="827" pageHeight="1169" math="0" shadow="0">
      <root>
        <mxCell id="0" />
        <mxCell id="1" parent="0" />
        <mxCell id="ptCXJSQZtrZ8qQpP-_Ya-1" value="" style="rounded=0;whiteSpace=wrap;html=1;fontSize=16;" vertex="1" parent="1">
          <mxGeometry x="119" y="269" width="120" height="60" as="geometry" />
        </mxCell>
      </root>
    </mxGraphModel>
  </diagram>
</mxfile>
